<svg width="512" height="512" viewBox="0 0 512 512" fill="none" xmlns="http://www.w3.org/2000/svg">
<g clip-path="url(#clip0_280_2)">
<path d="M199.756 6.19342C235.671 -1.85803 274.365 -2.27094 312.132 6.19342C317.792 7.43215 321.804 12.491 321.805 18.2715V68.9551C344.753 77.0067 365.952 89.291 384.373 105.188L428.213 79.794C433.152 76.9038 439.533 77.9361 443.443 82.168C468.862 109.832 488.311 143.071 499.734 179.819C501.381 185.393 499.116 191.38 494.074 194.271L450.235 219.664C454.66 243.612 454.66 268.181 450.235 292.129L494.074 317.523C499.117 320.413 501.38 326.4 499.837 332.077C488.414 368.929 468.964 402.167 443.546 429.729C439.635 434.064 433.358 434.993 428.315 432.103L384.476 406.709C365.953 422.502 344.754 434.787 321.908 442.941V493.729C321.908 499.509 317.894 504.567 312.234 505.806C276.319 513.857 237.626 514.27 199.858 505.806C194.199 504.567 190.184 499.509 190.184 493.729V442.941C167.236 434.89 146.037 422.606 127.616 406.709L83.7772 432.103C78.8376 434.993 72.4572 433.961 68.5468 429.729C43.1285 402.064 23.6786 368.825 12.2557 332.077C10.6094 326.503 12.8736 320.516 17.9159 317.626L61.7548 292.232C57.3297 268.284 57.3297 243.716 61.7548 219.768L17.9159 194.374C12.8737 191.484 10.5065 185.497 12.2557 179.923C23.6786 143.072 43.1285 109.833 68.5468 82.2715C72.4572 77.9362 78.7348 77.0066 83.7772 79.8965L127.514 105.29C146.037 89.4968 167.236 77.2134 190.082 69.0587V18.2715C190.082 12.4911 194.096 7.43223 199.756 6.19342ZM154.002 175C139.447 175.001 131.85 191.947 140.933 202.891L237.088 306.75H143.378C139.872 306.75 137.003 309.619 137.003 313.125V338.625C137.003 342.131 139.872 345 143.378 345H368.621C372.127 345 374.996 342.131 374.996 338.625V313.125C374.996 309.619 372.127 306.75 368.621 306.75H275.496L371.065 202.891C380.149 191.947 372.552 175 357.997 175H154.002Z" fill="#E3CF7D"/>
</g>
<defs>
<clipPath id="clip0_280_2">
<rect width="512" height="512" fill="white"/>
</clipPath>
</defs>
</svg>
