<svg width="512" height="512" viewBox="0 0 512 512" fill="none" xmlns="http://www.w3.org/2000/svg">
<g fill="#E3CF7D">
<path d="M362.216 425.777L342.657 414.518C344.631 403.9 344.631 393.008 342.657 382.39L362.216 371.132C364.465 369.851 365.475 367.196 364.741 364.725C359.644 348.432 350.967 333.695 339.627 321.43C337.882 319.554 335.036 319.096 332.832 320.378L313.273 331.636C305.055 324.588 295.597 319.142 285.359 315.572V293.101C285.359 290.538 283.568 288.296 281.043 287.746C264.193 283.994 246.93 284.177 230.907 287.746C228.382 288.296 226.591 290.538 226.591 293.101V315.618C216.399 319.233 206.941 324.68 198.677 331.682L179.164 320.423C176.915 319.142 174.114 319.554 172.369 321.476C161.029 333.695 152.352 348.432 147.255 364.77C146.475 367.242 147.531 369.896 149.78 371.178L169.339 382.436C167.365 393.054 167.365 403.946 169.339 414.564L149.78 425.822C147.531 427.104 146.521 429.758 147.255 432.229C152.352 448.522 161.029 463.259 172.369 475.524C174.114 477.4 176.96 477.858 179.164 476.577L198.723 465.318C206.941 472.366 216.399 477.812 226.637 481.382V503.899C226.637 506.462 228.428 508.704 230.953 509.254C247.803 513.006 265.066 512.823 281.089 509.254C283.614 508.704 285.405 506.462 285.405 503.899V481.382C295.597 477.767 305.055 472.32 313.319 465.318L332.878 476.577C335.127 477.858 337.928 477.446 339.673 475.524C351.013 463.305 359.69 448.568 364.787 432.229C365.475 429.712 364.465 427.058 362.216 425.777ZM255.975 435.067C235.728 435.067 219.245 418.637 219.245 398.454C219.245 378.271 235.728 361.841 255.975 361.841C276.222 361.841 292.705 378.271 292.705 398.454C292.705 418.637 276.222 435.067 255.975 435.067Z"/>
<path d="M368.062 149.459L347.427 137.506C349.51 126.233 349.51 114.669 347.427 103.397L368.062 91.4441C370.436 90.0836 371.501 87.2654 370.726 84.6417C365.35 67.3442 356.195 51.6986 344.23 38.6769C342.389 36.6848 339.386 36.1989 337.061 37.5594L316.426 49.5122C307.755 42.0295 297.777 36.2475 286.975 32.4576V8.60062C286.975 5.87967 285.086 3.49883 282.422 2.91577C264.644 -1.06849 246.431 -0.874138 229.526 2.91577C226.862 3.49883 224.973 5.87967 224.973 8.60062V32.5062C214.219 36.3447 204.24 42.1267 195.521 49.5607L174.935 37.608C172.561 36.2475 169.606 36.6848 167.766 38.7255C155.801 51.6986 146.646 67.3441 141.269 84.6902C140.446 87.314 141.56 90.1322 143.934 91.4926L164.569 103.445C162.486 114.718 162.486 126.282 164.569 137.555L143.934 149.507C141.56 150.868 140.494 153.686 141.269 156.31C146.646 173.607 155.801 189.253 167.766 202.274C169.606 204.267 172.61 204.752 174.935 203.392L195.57 191.439C204.24 198.922 214.219 204.704 225.021 208.494V232.399C225.021 235.12 226.91 237.501 229.574 238.084C247.351 242.068 265.565 241.874 282.47 238.084C285.134 237.501 287.023 235.12 287.023 232.399V208.494C297.777 204.655 307.755 198.873 316.474 191.439L337.11 203.392C339.483 204.752 342.438 204.315 344.279 202.274C356.243 189.301 365.398 173.656 370.775 156.31C371.501 153.637 370.436 150.819 368.062 149.459ZM255.974 159.322C234.612 159.322 217.222 141.879 217.222 120.451C217.222 99.0239 234.612 81.5806 255.974 81.5806C277.335 81.5806 294.725 99.0239 294.725 120.451C294.725 141.879 277.335 159.322 255.974 159.322Z"/></g>
</svg>
