<svg fill="none" height="512" viewBox="0 0 512 512" width="512" xmlns="http://www.w3.org/2000/svg" xmlns:xlink="http://www.w3.org/1999/xlink"><clipPath id="a"><path d="m0 0h512v512h-512z"/></clipPath><g clip-path="url(#a)"><path d="m200.072 6.19385c35.915-8.05148 74.609-8.46446 112.376 0 5.66 1.23874 9.673 6.29755 9.673 12.07815v50.6836c22.949 8.0516 44.148 20.3357 62.568 36.2324l43.84-25.3936c4.94-2.8902 11.32-1.8582 15.231 2.3741 25.418 27.6645 44.868 60.9035 56.291 97.6515 1.646 5.574-.618 11.561-5.66 14.451l-43.839 25.394c4.425 23.948 4.425 48.516 0 72.464l43.839 25.394c5.042 2.89 7.306 8.877 5.762 14.555-11.423 36.851-30.872 70.09-56.291 97.651-3.91 4.335-10.188 5.264-15.23 2.374l-43.839-25.394c-18.524 15.794-39.723 28.078-62.568 36.233v50.787c0 5.781-4.014 10.838-9.674 12.077-35.915 8.052-74.609 8.465-112.376 0-5.66-1.239-9.674-6.296-9.674-12.077v-50.787c-22.949-8.052-44.148-20.336-62.568-36.233l-43.8392 25.394c-4.9397 2.89-11.32 1.858-15.2305-2.374-25.4184-27.664-44.8682-60.903-56.291-97.651-1.6466-5.575.6176-11.561 5.6601-14.452l43.8389-25.393c-4.4251-23.948-4.4251-48.517 0-72.465l-43.8389-25.393c-5.0424-2.891-7.4094-8.878-5.6601-14.452 11.4228-36.851 30.8726-70.09 56.291-97.651 3.9105-4.3355 10.188-5.2652 15.2305-2.375l43.7362 25.394c18.524-15.7939 39.723-28.0771 62.568-36.2319v-50.7871c0-5.7807 4.014-10.83944 9.674-12.07815zm-1.181 134.74015c-10.944-9.084-27.891-1.487-27.891 13.068v203.996c0 14.555 16.947 22.152 27.891 13.068l103.859-96.154v93.71c0 3.506 2.869 6.375 6.375 6.375h25.5c3.506 0 6.375-2.869 6.375-6.375v-225.244c0-3.506-2.869-6.375-6.375-6.375h-25.5c-3.506 0-6.375 2.869-6.375 6.375v93.125z" fill="#e3cf7d"/></g></svg>