<svg fill="none" height="512" viewBox="0 0 512 512" width="512" xmlns="http://www.w3.org/2000/svg" xmlns:xlink="http://www.w3.org/1999/xlink"><clipPath id="a"><path d="m0 0h512v512h-512z"/></clipPath><g clip-path="url(#a)"><path d="m199.757 6.19434c35.915-8.05151 74.608-8.46447 112.376 0 5.66 1.23871 9.673 6.29746 9.673 12.07816v50.6836c22.948 8.0516 44.148 20.3356 62.569 36.2319l43.839-25.3931c4.939-2.8903 11.32-1.8582 15.23 2.374 25.419 27.6641 44.869 60.9031 56.291 97.6511 1.647 5.574-.617 11.561-5.66 14.451l-43.839 25.394c4.425 23.948 4.425 48.517 0 72.465l43.839 25.393c5.043 2.891 7.307 8.878 5.763 14.555-11.423 36.852-30.873 70.09-56.291 97.651-3.911 4.336-10.188 5.265-15.231 2.375l-43.838-25.394c-18.524 15.793-39.723 28.078-62.569 36.232v50.787c0 5.781-4.014 10.839-9.674 12.078-35.915 8.051-74.608 8.464-112.376 0-5.66-1.239-9.673-6.297-9.673-12.078v-50.787c-22.949-8.051-44.148-20.335-62.569-36.232l-43.8387 25.394c-4.9396 2.89-11.3199 1.858-15.2304-2.375-25.4185-27.664-44.8682-60.903-56.2911-97.651-1.6465-5.574.6177-11.562 5.6602-14.452l43.8389-25.394c-4.425-23.948-4.4251-48.515 0-72.463l-43.8389-25.394c-5.0424-2.89-7.4094-8.877-5.6602-14.451 11.4229-36.852 30.8726-70.091 56.2911-97.6525 3.9104-4.3353 10.188-5.2642 15.2304-2.374l43.7367 25.3935c18.523-15.7934 39.722-28.0776 62.568-36.2324v-50.7861c0-5.7807 4.014-10.83946 9.674-12.07816zm25.043 125.86766c-2.892.005-5.724.815-8.183 2.339-2.458 1.525-4.446 3.703-5.74 6.293l-15.6 31.25c-1.189 2.38-1.751 5.026-1.633 7.685.117 2.659.911 5.243 2.305 7.509 1.395 2.265 3.344 4.136 5.663 5.435s4.931 1.984 7.588 1.989h15.6v125h-31.2c-4.138 0-8.105 1.647-11.031 4.577-2.925 2.93-4.569 6.904-4.569 11.048v31.25c0 4.144 1.644 8.118 4.569 11.048 2.926 2.93 6.893 4.576 11.031 4.577h124.8c4.138-.001 8.105-1.647 11.031-4.577 2.925-2.93 4.569-6.904 4.569-11.048v-31.25c0-4.144-1.644-8.118-4.569-11.048-2.926-2.93-6.893-4.577-11.031-4.577h-31.2v-171.875c0-4.144-1.644-8.118-4.569-11.048-2.926-2.931-6.894-4.577-11.031-4.577z" fill="#e3cf7d"/></g></svg>