<svg width="448" height="512" viewBox="0 0 448 512" fill="none" xmlns="http://www.w3.org/2000/svg">
<g clip-path="url(#clip0_211_2)">
<path d="M223.999 224C217.67 224.002 211.484 225.88 206.223 229.397C200.962 232.914 196.861 237.912 194.441 243.76C192.02 249.607 191.387 256.041 192.623 262.248C193.858 268.455 196.907 274.156 201.382 278.63C205.858 283.105 211.56 286.152 217.767 287.386C223.974 288.62 230.408 287.986 236.255 285.563C242.101 283.141 247.099 279.04 250.614 273.777C254.13 268.515 256.007 262.329 256.007 256C255.99 247.517 252.612 239.386 246.613 233.389C240.614 227.391 232.482 224.015 223.999 224ZM63.3389 352C59.3389 344.75 63.2139 327.25 78.3428 303.75C85.2197 310.25 92.4717 316.625 100.224 322.875C101.849 336.625 104.224 350 106.974 363C82.3447 363.875 67.0908 358.625 63.3389 352ZM100.224 189.125C92.4716 195.375 85.2197 201.75 78.3428 208.25C63.2139 184.75 59.3388 167.25 63.3389 160C66.7159 153.875 79.7178 148.5 101.224 148.5C102.974 148.5 105.099 148.875 106.974 148.875C104.099 162.25 101.849 175.625 100.224 189.125ZM223.999 64C233.501 64 246.255 77.5 257.882 101.25C246.63 105 235.378 109.25 223.999 114.125C212.622 109.25 201.37 105 190.116 101.25C201.745 77.5 214.497 64 223.999 64ZM223.999 448C214.497 448 201.745 434.5 190.116 410.75C201.37 407 212.622 402.75 223.999 397.875C235.378 402.75 246.63 407 257.882 410.75C246.255 434.5 233.501 448 223.999 448ZM223.999 336C208.177 336 192.709 331.308 179.553 322.518C166.398 313.727 156.144 301.233 150.089 286.615C144.034 271.997 142.449 255.911 145.536 240.393C148.623 224.874 156.242 210.62 167.431 199.431C178.619 188.243 192.873 180.624 208.392 177.537C223.91 174.45 239.996 176.035 254.614 182.09C269.232 188.145 281.726 198.398 290.517 211.554C299.307 224.71 303.999 240.177 303.999 256C303.999 277.217 295.57 297.566 280.568 312.568C265.565 327.571 245.216 336 223.999 336ZM384.659 352C381.034 358.625 365.655 363.875 341.025 363C343.777 350 346.152 336.625 347.777 322.875C355.528 316.625 362.78 310.25 369.655 303.75C384.784 327.25 388.659 344.75 384.659 352ZM369.655 208.25C362.78 201.75 355.528 195.375 347.776 189.125C346.151 175.625 343.901 162.25 341.024 148.875C342.899 148.875 345.026 148.5 346.776 148.5C368.28 148.5 381.284 153.875 384.659 160C388.659 167.25 384.784 184.75 369.655 208.25Z" fill="#66B3EB"/>
</g>
<defs>
<clipPath id="clip0_211_2">
<rect width="448" height="512" fill="white"/>
</clipPath>
</defs>
</svg>
